<svg xmlns="http://www.w3.org/2000/svg" version="1.1" xmlns:xlink="http://www.w3.org/1999/xlink" xmlns:svgjs="http://svgjs.com/svgjs" width="512" height="512" x="0" y="0" viewBox="0 0 60 61" style="enable-background:new 0 0 512 512" xml:space="preserve" class=""><g><g data-name="Layer 2"><g data-name="Layer 1"><path fill="#8c95a4" d="M6 14H4a4 4 0 0 0-4 4v32a4 4 0 0 0 4 4h52a4 4 0 0 0 4-4V18a4 4 0 0 0-4-4z" data-original="#8c95a4" class=""></path><path fill="#474747" d="M4 14h52a4 4 0 0 1 4 4v30H0V18a4 4 0 0 1 4-4z" data-original="#39c3fc" class="" opacity="1"></path><path fill="#040404" d="M0 46h60v2H0z" data-original="#148ce0" class="" opacity="1"></path><path fill="#798699" d="M19 54h22v6H19z" data-original="#798699" class=""></path><path fill="#ececec" d="M6 0h48v44H6z" data-original="#ececec" class=""></path><path fill="#474747" d="M42.4 40.08a12.12 12.12 0 0 0-.87-2.08l1.91-3.21-4.25-4.25L36 32.47a12.12 12.12 0 0 0-2.06-.87L33 28h-6l-.92 3.6a12.12 12.12 0 0 0-2.06.87l-3.21-1.91-4.25 4.25L18.47 38a12.12 12.12 0 0 0-.87 2.06L14 41v3h10a6 6 0 0 1 12 0h10v-3z" data-original="#fea82f" class="" opacity="1"></path><path fill="#c6f604" d="M30 34a10 10 0 0 0-10 10h4a6 6 0 0 1 12 0h4a10 10 0 0 0-10-10z" data-original="#ffc729" class="" opacity="1"></path><path fill="#c6f604" d="M6 0h48v8H6z" data-original="#fb5968" class="" opacity="1"></path><path fill="#abd500" d="M6 5h48v3H6z" data-original="#cd2c5a" class="" opacity="1"></path><g fill="#31353d"><circle cx="10" cy="4" r="1" fill="#31353d" data-original="#31353d" class=""></circle><circle cx="14" cy="4" r="1" fill="#31353d" data-original="#31353d" class=""></circle><circle cx="18" cy="4" r="1" fill="#31353d" data-original="#31353d" class=""></circle><path d="M35 23a1 1 0 0 1-.55-1.83L39.2 18l-4.75-3.17a1 1 0 0 1 1.1-1.66l6 4a1 1 0 0 1 0 1.66l-6 4A.94.94 0 0 1 35 23zM25 23a.94.94 0 0 1-.55-.17l-6-4a1 1 0 0 1 0-1.66l6-4a1 1 0 0 1 1.1 1.66L20.8 18l4.75 3.17A1 1 0 0 1 25 23zM28 25a1.25 1.25 0 0 1-.32-.05 1 1 0 0 1-.63-1.27l4-12a1 1 0 0 1 1.9.64l-4 12A1 1 0 0 1 28 25z" fill="#31353d" data-original="#31353d" class=""></path></g><path fill="#8c95a4" d="M45 61H15a1 1 0 0 1 0-2h30a1 1 0 0 1 0 2z" data-original="#8c95a4" class=""></path><circle cx="3" cy="19" r="1" fill="#ffffff" data-original="#ffffff" class=""></circle><path fill="#ffffff" d="M3 35a1 1 0 0 1-1-1V23a1 1 0 0 1 1-1 1 1 0 0 1 1 1v11a1 1 0 0 1-1 1z" data-original="#ffffff" class=""></path></g></g></g></svg>