<svg xmlns="http://www.w3.org/2000/svg" version="1.1" xmlns:xlink="http://www.w3.org/1999/xlink" width="512" height="512" x="0" y="0" viewBox="0 0 24 24" style="enable-background:new 0 0 512 512" xml:space="preserve" class=""><g><defs><linearGradient id="a" x1="1.95" x2="22.05" y1="7.314" y2="16.686" gradientUnits="userSpaceOnUse"><stop offset="0" stop-color="#fff" stop-opacity=".2"></stop><stop offset="1" stop-color="#fff" stop-opacity="0"></stop></linearGradient></defs><path fill="#42a5f5" d="M24 12c0-1.693-1.93-3.16-4.933-4.06.772-3.2.476-5.73-1.02-6.61a2.771 2.771 0 0 0-2.19-.2A9.587 9.587 0 0 0 12 3.637 9.587 9.587 0 0 0 8.143 1.13a2.77 2.77 0 0 0-2.19.2c-1.496.88-1.792 3.41-1.02 6.61C1.929 8.84 0 10.307 0 12s1.93 3.16 4.933 4.06c-.772 3.2-.476 5.73 1.02 6.61A2.44 2.44 0 0 0 7.213 23a3.614 3.614 0 0 0 .93-.13A9.587 9.587 0 0 0 12 20.362a9.587 9.587 0 0 0 3.857 2.507 3.614 3.614 0 0 0 .929.131 2.44 2.44 0 0 0 1.262-.331c1.495-.88 1.79-3.41 1.02-6.61C22.07 15.16 24 13.693 24 12Zm-7.884-9.904A2.601 2.601 0 0 1 16.78 2a1.475 1.475 0 0 1 .759.191c.995.586 1.229 2.67.556 5.487a23.692 23.692 0 0 0-3.167-.528 24.958 24.958 0 0 0-2.23-2.8 8.612 8.612 0 0 1 3.417-2.254Zm-.624 11.971c-.361.638-.742 1.25-1.133 1.836a28.386 28.386 0 0 1-4.718 0 29.258 29.258 0 0 1-1.133-1.836Q7.913 13.016 7.444 12q.472-1.013 1.064-2.067c.361-.638.742-1.25 1.133-1.836a28.386 28.386 0 0 1 4.718 0c.391.586.772 1.198 1.133 1.836q.595 1.051 1.064 2.067-.472 1.013-1.064 2.067Zm1.59-.863c.303.746.552 1.463.755 2.149a21.806 21.806 0 0 1-2.195.408c.245-.391.487-.79.72-1.201.257-.454.493-.906.72-1.356ZM12 18.93a23.387 23.387 0 0 1-1.627-1.98c.532.03 1.072.05 1.627.05s1.095-.02 1.627-.05A23.387 23.387 0 0 1 12 18.93Zm-3.642-3.17a21.806 21.806 0 0 1-2.195-.407c.203-.686.452-1.403.756-2.15.226.45.462.903.72 1.357.232.411.474.81.719 1.2Zm-1.44-4.964a22.964 22.964 0 0 1-.755-2.149 21.806 21.806 0 0 1 2.195-.408c-.245.391-.487.79-.72 1.201-.257.454-.493.906-.72 1.356ZM12 5.071a23.397 23.397 0 0 1 1.628 1.978C13.095 7.02 12.555 7 12 7s-1.095.02-1.628.05A23.397 23.397 0 0 1 12 5.07Zm4.362 4.37c-.233-.412-.475-.81-.72-1.202a21.806 21.806 0 0 1 2.195.408 22.954 22.954 0 0 1-.756 2.15c-.226-.45-.462-.903-.72-1.357ZM6.46 2.19A1.475 1.475 0 0 1 7.22 2a2.601 2.601 0 0 1 .664.096 8.612 8.612 0 0 1 3.417 2.255 24.958 24.958 0 0 0-2.23 2.8 23.692 23.692 0 0 0-3.167.527c-.673-2.817-.439-4.9.556-5.487ZM1 12c0-1.115 1.578-2.302 4.194-3.091A24.973 24.973 0 0 0 6.348 12a24.973 24.973 0 0 0-1.154 3.091C2.578 14.301 1 13.115 1 12Zm6.884 9.904a1.826 1.826 0 0 1-1.424-.095c-.995-.586-1.229-2.67-.556-5.487a23.692 23.692 0 0 0 3.167.528 24.958 24.958 0 0 0 2.23 2.8 8.612 8.612 0 0 1-3.417 2.254Zm9.656-.095a1.825 1.825 0 0 1-1.424.095 8.612 8.612 0 0 1-3.417-2.255 24.958 24.958 0 0 0 2.23-2.8 23.692 23.692 0 0 0 3.167-.527c.673 2.817.439 4.9-.556 5.487Zm1.266-6.718A24.973 24.973 0 0 0 17.652 12a24.973 24.973 0 0 0 1.154-3.091C21.422 9.699 23 10.885 23 12s-1.578 2.302-4.194 3.091Z" opacity="1" data-original="#42a5f5"></path><path fill="#42a5f5" d="M12 10a2 2 0 1 0 2 2 2.002 2.002 0 0 0-2-2Zm0 3a1 1 0 1 1 1-1 1.001 1.001 0 0 1-1 1Z" opacity="1" data-original="#42a5f5"></path><path fill="url(#a)" d="M24 12c0-1.693-1.93-3.16-4.933-4.06.772-3.2.476-5.73-1.02-6.61a2.771 2.771 0 0 0-2.19-.2A9.587 9.587 0 0 0 12 3.637 9.587 9.587 0 0 0 8.143 1.13a2.77 2.77 0 0 0-2.19.2c-1.496.88-1.792 3.41-1.02 6.61C1.929 8.84 0 10.307 0 12s1.93 3.16 4.933 4.06c-.772 3.2-.476 5.73 1.02 6.61A2.44 2.44 0 0 0 7.213 23a3.614 3.614 0 0 0 .93-.13A9.587 9.587 0 0 0 12 20.362a9.587 9.587 0 0 0 3.857 2.507 3.614 3.614 0 0 0 .929.131 2.44 2.44 0 0 0 1.262-.331c1.495-.88 1.79-3.41 1.02-6.61C22.07 15.16 24 13.693 24 12Zm-7.884-9.904A2.601 2.601 0 0 1 16.78 2a1.475 1.475 0 0 1 .759.191c.995.586 1.229 2.67.556 5.487a23.692 23.692 0 0 0-3.167-.528 24.958 24.958 0 0 0-2.23-2.8 8.612 8.612 0 0 1 3.417-2.254Zm-.624 11.971c-.361.638-.742 1.25-1.133 1.836a28.386 28.386 0 0 1-4.718 0 29.258 29.258 0 0 1-1.133-1.836Q7.913 13.016 7.444 12q.472-1.013 1.064-2.067c.361-.638.742-1.25 1.133-1.836a28.386 28.386 0 0 1 4.718 0c.391.586.772 1.198 1.133 1.836q.595 1.051 1.064 2.067-.472 1.013-1.064 2.067Zm1.59-.863c.303.746.552 1.463.755 2.149a21.806 21.806 0 0 1-2.195.408c.245-.391.487-.79.72-1.201.257-.454.493-.906.72-1.356ZM12 18.93a23.387 23.387 0 0 1-1.627-1.98c.532.03 1.072.05 1.627.05s1.095-.02 1.627-.05A23.387 23.387 0 0 1 12 18.93Zm-3.642-3.17a21.806 21.806 0 0 1-2.195-.407c.203-.686.452-1.403.756-2.15.226.45.462.903.72 1.357.232.411.474.81.719 1.2Zm-1.44-4.964a22.964 22.964 0 0 1-.755-2.149 21.806 21.806 0 0 1 2.195-.408c-.245.391-.487.79-.72 1.201-.257.454-.493.906-.72 1.356ZM12 5.071a23.397 23.397 0 0 1 1.628 1.978C13.095 7.02 12.555 7 12 7s-1.095.02-1.628.05A23.397 23.397 0 0 1 12 5.07Zm4.362 4.37c-.233-.412-.475-.81-.72-1.202a21.806 21.806 0 0 1 2.195.408 22.954 22.954 0 0 1-.756 2.15c-.226-.45-.462-.903-.72-1.357ZM6.46 2.19A1.475 1.475 0 0 1 7.22 2a2.601 2.601 0 0 1 .664.096 8.612 8.612 0 0 1 3.417 2.255 24.958 24.958 0 0 0-2.23 2.8 23.692 23.692 0 0 0-3.167.527c-.673-2.817-.439-4.9.556-5.487ZM1 12c0-1.115 1.578-2.302 4.194-3.091A24.973 24.973 0 0 0 6.348 12a24.973 24.973 0 0 0-1.154 3.091C2.578 14.301 1 13.115 1 12Zm6.884 9.904a1.826 1.826 0 0 1-1.424-.095c-.995-.586-1.229-2.67-.556-5.487a23.692 23.692 0 0 0 3.167.528 24.958 24.958 0 0 0 2.23 2.8 8.612 8.612 0 0 1-3.417 2.254Zm9.656-.095a1.825 1.825 0 0 1-1.424.095 8.612 8.612 0 0 1-3.417-2.255 24.958 24.958 0 0 0 2.23-2.8 23.692 23.692 0 0 0 3.167-.527c.673 2.817.439 4.9-.556 5.487Zm1.266-6.718A24.973 24.973 0 0 0 17.652 12a24.973 24.973 0 0 0 1.154-3.091C21.422 9.699 23 10.885 23 12s-1.578 2.302-4.194 3.091Z" opacity="1" data-original="url(#a)" class=""></path><path fill="url(#a)" d="M12 10a2 2 0 1 0 2 2 2.002 2.002 0 0 0-2-2Zm0 3a1 1 0 1 1 1-1 1.001 1.001 0 0 1-1 1Z" opacity="1" data-original="url(#a)" class=""></path></g></svg>
